<svg xmlns="http://www.w3.org/2000/svg" viewBox="0 0 24 24" fill="#FFFFFF">
  <path d="M21.33 2.1016l-3.6503.5507c-.406.061-.5693.5577-.2793.8477l.8418.8438-3.0645 3.0644-.8945-.8379a1.0001 1.0001 0 0 0-1.3984.0313L9.4922 10.078 8.707 9.293a1.0001 1.0001 0 0 0-1.4062-.0078l-3.998 3.918a1.0001 1.0001 0 1 0 1.4003 1.4277l3.289-3.2247.8009.8008a1.0001 1.0001 0 0 0 1.4218-.0078l3.416-3.5.8848.8301a1.0001 1.0001 0 0 0 1.3907-.0215l3.75-3.75.8437.8418c.29.29.7867.1267.8477-.2793l.5507-3.6504c.05-.333-.2353-.6183-.5683-.5683zm-1.3456 7.8847A1.0001 1.0001 0 0 0 19 11v9a1.0001 1.0001 0 1 0 2 0v-9a1.0001 1.0001 0 0 0-1.0156-1.0137zm-4 2A1.0001 1.0001 0 0 0 15 13v7a1.0001 1.0001 0 1 0 2 0v-7a1.0001 1.0001 0 0 0-1.0156-1.0137zm-4 2A1.0001 1.0001 0 0 0 11 15v5a1.0001 1.0001 0 1 0 2 0v-5a1.0001 1.0001 0 0 0-1.0156-1.0137zm-4 2A1.0001 1.0001 0 0 0 7 17v3a1.0001 1.0001 0 1 0 2 0v-3a1.0001 1.0001 0 0 0-1.0156-1.0137zm-4 2A1.0001 1.0001 0 0 0 3 19v1a1.0001 1.0001 0 1 0 2 0v-1a1.0001 1.0001 0 0 0-1.0156-1.0137z"/>
</svg>