<svg xmlns="http://www.w3.org/2000/svg" viewBox="0 0 30 30" fill="#e6e6e6">
  <path d="M5 4a1 1 0 0 0-.7 1.7L8.6 10H6a1 1 0 1 0 0 2h4.8a1 1 0 0 0 1.2-1.2V6a1 1 0 0 0-1-1 1 1 0 0 0-1 1v2.6L5.7 4.3A1 1 0 0 0 5 4zm20 0a1 1 0 0 0-.7.3L20 8.6V6a1 1 0 0 0-1-1 1 1 0 0 0-1 1v4.8a1 1 0 0 0 1.2 1.2H24a1 1 0 1 0 0-2h-2.6l4.3-4.3A1 1 0 0 0 25 4zM11 18a1 1 0 0 0-.1 0H6a1 1 0 1 0 0 2h2.6l-4.3 4.3a1 1 0 1 0 1.4 1.4l4.3-4.3V24a1 1 0 1 0 2 0v-4.9a1 1 0 0 0-1-1.1zm8 0a1 1 0 0 0-1 1.1V24a1 1 0 1 0 2 0v-2.6l4.3 4.3a1 1 0 1 0 1.4-1.4L21.4 20H24a1 1 0 1 0 0-2h-4.9a1 1 0 0 0-.1 0z"/>
</svg>