<svg xmlns="http://www.w3.org/2000/svg" viewBox="0 0 48 48">
  <path d="M24 4v20L14 6.7 24 4z" fill="#e91e63"/>
  <path d="M34 6.7l7.3 7.3L24 24 34 6.7z" fill="#ff5722"/>
  <path d="M24 4l10 2.7L24 24V4z" fill="#f44336"/>
  <path d="M24 44V24l10 17.3L24 44z" fill="#8bc34a"/>
  <path d="M14 41.3L6.7 34 24 24 14 41.3z" fill="#03a9f4"/>
  <path d="M24 44l-10-2.7L24 24v20z" fill="#4caf50"/>
  <path d="M44 24H24l17.3-10L44 24z" fill="#ff9800"/>
  <path d="M41.3 34L34 41.3 24 24l17.3 10z" fill="#ffeb3b"/>
  <path d="M44 24l-2.7 10L24 24h20z" fill="#ffc107"/>
  <path d="M4 24h20L6.7 34 4 24z" fill="#3f51b5"/>
  <path d="M6.7 14L14 6.7 24 24 6.7 14z" fill="#9c27b0"/>
  <path d="M4 24l2.7-10L24 24H4z" fill="#673ab7"/>
</svg>