<svg xmlns="http://www.w3.org/2000/svg" viewBox="0 0 32 32" fill="#e6e6e6">
  <path d="M7 4c-.9414 0-1.914.3555-2.6875 1.0313C3.5391 5.707 3 6.746 3 8c0 1.0625.4453 1.9688 1 2.6875.5547.7188 1.2266 1.2852 1.8438 1.8438C7.078 13.6484 8 14.5663 8 16c0 .1523-.1484.5195-.3438.8125-.1953.293-.375.4688-.375.4688l1.4375 1.4062s.3204-.3203.625-.7813c.2618-.3945.547-.9023.625-1.5624.1133.3242.2227.6562.3438.9687.6875 1.7734 1.4805 3.3633 2.375 4.5625.3242.4375.6602.8242 1.0313 1.1563C11.6523 23.1796 10 24.8984 10 27v1h12v-1c0-2.125-1.6836-3.8516-3.7813-3.9688.375-.332.7344-.7226 1.0626-1.1562.8984-1.1953 1.6796-2.789 2.375-4.5625.1289-.332.2539-.6875.375-1.0313.0664.6876.3554 1.2188.625 1.625.3046.461.625.7813.625.7813l1.4374-1.4063s-.1796-.1757-.375-.4687C24.1485 16.5195 24 16.1523 24 16c0-1.4336.9219-2.3516 2.1563-3.4688.6171-.5585 1.289-1.125 1.8437-1.8437.5547-.7188 1-1.625 1-2.6875 0-1.254-.539-2.293-1.3125-2.9688C26.9141 4.3556 25.9415 4 25 4c-1.2773 0-2.1523.582-2.625 1H9.625C9.1523 4.582 8.2773 4 7 4zm0 2c.4727 0 .7773.1484 1 .2813.0273 2.039.379 4.3515.9375 6.625-.5313-.7188-1.1953-1.3165-1.7813-1.8438-.6328-.5703-1.2109-1.0977-1.5937-1.5938C5.1797 8.9727 5 8.543 5 8c0-.6992.2734-1.1328.6563-1.4688C6.039 6.1954 6.5663 6 7 6zm18 0c.4336 0 .961.1953 1.3438.5313C26.7265 6.8671 27 7.3007 27 8c0 .543-.1797.9727-.5625 1.4688-.3828.496-.961 1.0234-1.5938 1.5937-.5976.539-1.2734 1.1602-1.8124 1.9063.5742-2.2891.9414-4.6211.9687-6.6875.2227-.1329.5273-.2813 1-.2813zM10.125 7h11.75c-.1523 2.9727-.9219 6.5977-2.0938 9.5938-.6484 1.6562-1.3984 3.0937-2.125 4.0624C16.9297 21.625 16.2657 22 15.9688 22c-.293 0-.9336-.375-1.6563-1.3438-.7227-.9687-1.4805-2.4023-2.125-4.0624-1.164-3-1.9102-6.6368-2.0625-9.5938zM15 10v5h2v-5zm-1 15h4c.7188 0 1.211.4414 1.5625 1h-7.125c.3516-.5586.8438-1 1.5625-1z"/>
</svg>