<svg xmlns="http://www.w3.org/2000/svg" viewBox="0 0 30 30" fill="#e6e6e6">
  <path d="M5 4A1 1 0 0 0 4 5V10a1 1 0 1 0 2 0V7.4l4.3 4.3a1 1 0 1 0 1.4-1.4L7.4 6H10a1 1 0 1 0 0-2H5.1A1 1 0 0 0 5 4zm20 0a1 1 0 0 0-.1 0H20a1 1 0 1 0 0 2h2.6l-4.3 4.3a1 1 0 1 0 1.4 1.4L24 7.4V10a1 1 0 1 0 2 0V5.1A1 1 0 0 0 25 4zM11 18a1 1 0 0 0-.7.3L6 22.6V20a1 1 0 0 0-1-1 1 1 0 0 0-1 1v4.8A1 1 0 0 0 5.2 26H10a1 1 0 1 0 0-2H7.4l4.3-4.3A1 1 0 0 0 11 18zm8 0a1 1 0 0 0-.7 1.7l4.3 4.3H20a1 1 0 1 0 0 2h4.8a1 1 0 0 0 1.2-1.2V20a1 1 0 0 0-1-1 1 1 0 0 0-1 1v2.6l-4.3-4.3a1 1 0 0 0-.7-.3z" style="line-height:normal;text-indent:0;text-align:start;text-decoration-line:none;text-decoration-style:solid;text-decoration-color:#000;text-transform:none;block-progression:tb;isolation:auto;mix-blend-mode:normal"/>
</svg>