<svg xmlns="http://www.w3.org/2000/svg" viewBox="0 0 50 50"><path fill="#4df7ff" d="M10 9c-3.867 0-7 3.133-7 7v18c0 3.867 3.133 7 7 7h30c3.867 0 7-3.133 7-7V16c0-3.867-3.133-7-7-7zm19.969 7.75c4.082 0 4.617 3.227 4.687 4.219l.032.281h-2.376l-.03-.219c-.106-1.02-.618-2.25-2.407-2.25-2.945 0-3.504 3.426-3.594 5.157.895-1.079 2.18-1.625 3.782-1.625 4.898 0 5.03 4.824 5.03 5.375 0 2.062-1.175 5.562-5.562 5.562-3.742 0-5.625-2.621-5.625-7.781-.004-1.89.227-3.492.719-4.813.953-2.554 2.809-3.906 5.344-3.906zm-10.625.063h1.906v16.28h-2.125v-.156h-.25V21.876H14.75v-2.031l.25-.032c2.363-.085 3.887-.57 4.281-2.78zm10.375 7.53c-2.969.083-3 3.212-3 3.345 0 2.57 1.886 3.25 3 3.25 2.836 0 2.906-2.915 2.906-3.25 0-.344-.07-3.344-2.906-3.344z"/></svg>