<svg xmlns="http://www.w3.org/2000/svg" viewBox="0 0 30 30" fill="#e6e6e6">
  <path d="M17 3c-6.2 0-7 7-7.3 9H6.4L6 14h3.4C7.5 25 6.7 25.8 5.8 25.8c-.8-2.3-1.4-3-2.7-3-1.8 0-2.1 1.4-2.1 2C1 26 2 27 4 27c7.4 0 8-6 9.2-13h3.4l.4-2h-3.5c.3-2.9.7-7 1.8-7.8.2.5.9 3 2.7 3 2 0 2.2-1.8 2.2-2 0-.6-.4-2.2-3.2-2.2zm4.3 13c-1 0-2.3.6-2.9.9l-.2.8 1.3-.2c1.1 0 1.3.5 1.8 2.3l.5 2-1 1.3c-.3-.1-1-.4-1.7-.4-1.5 0-1.8 1.3-1.8 1.8 0 .6.3 1.5 1.4 1.5 1.5 0 1.9-1.2 3.4-3.4.3 1.6.4 3.4 2.9 3.4 1 0 2.2-.5 2.8-.8l.3-.8-1.3.2c-1.5 0-1.5-1-2.4-4.4l1.1-1.3c.2 0 1 .4 1.7.4.5 0 1.8-.4 1.8-1.9 0-.5-.3-1.4-1.4-1.4-1.7 0-2.6 2.4-3.4 3.4-.4-2.2-.9-3.4-2.9-3.4z"/>
</svg>