<svg xmlns="http://www.w3.org/2000/svg" viewBox="0 0 24 24" fill="#e6e6e6">
  <path d="M6 7C3.077 7 .7394 9.5082 1.0234 12.4902 1.2714 15.0902 3.6028 17 6.2148 17H9c.552 0 1-.448 1-1s-.448-1-1-1H6.17c-1.624 0-3.0801-1.2168-3.1641-2.8398C2.9149 10.4302 4.29 9 6 9h3c.552 0 1-.448 1-1s-.448-1-1-1H6zm9 0c-.552 0-1 .448-1 1s.448 1 1 1h2.83c1.624 0 3.0801 1.2168 3.1641 2.8398C21.0851 13.5698 19.71 15 18 15h-3c-.552 0-1 .448-1 1s.448 1 1 1h3c2.923 0 5.2606-2.5082 4.9766-5.4902C22.7286 8.9098 20.3972 7 17.7852 7H15zm-7 4c-.552 0-1 .448-1 1s.448 1 1 1h8c.552 0 1-.448 1-1s-.448-1-1-1H8z"/>
</svg>