<svg xmlns="http://www.w3.org/2000/svg" viewBox="0 0 24 24" fill="#FFF">
  <path style="line-height:normal;text-indent:0;text-align:start;text-decoration-line:none;text-decoration-style:solid;text-decoration-color:#000;text-transform:none;block-progression:tb;isolation:auto;mix-blend-mode:normal" d="M9 3c-1.105 0-2 .895-2 2v14c0 1.105.895 2 2 2h10c1.105 0 2-.895 2-2V5c0-1.105-.895-2-2-2H9zm-5.0156.9863A1.0001 1.0001 0 0 0 3 5v14a1.0001 1.0001 0 1 0 2 0V5a1.0001 1.0001 0 0 0-1.0156-1.0137zM14 6c2.504 0 4 2.034 4 4 0 1.816-1.1416 2.8409-1.9746 3.5879C15.3704 14.1769 15 14.532 15 15h-2c0-1.383.9365-2.2244 1.6895-2.9004C15.5015 11.3706 16 10.879 16 10c0-.773-.543-2-2-2-.979 0-1.567.7445-1.832 1.3555-.165.38-.5157.6445-.9297.6445h-.0098c-.715 0-1.193-.7297-.916-1.3887C10.8515 7.3303 12.082 6 14 6zm-.5 10h1c.276 0 .5.224.5.5v1c0 .276-.224.5-.5.5h-1c-.276 0-.5-.224-.5-.5v-1c0-.276.224-.5.5-.5z" font-weight="400" font-family="sans-serif" white-space="normal" overflow="visible"/>
</svg>