<svg xmlns="http://www.w3.org/2000/svg" viewBox="0 0 24 24" fill="#FFF">
  <path d="M10.4902 2a.9984.9984 0 0 0-.9804.8086l-.334 1.7148c-.8208.3104-1.5797.744-2.2461 1.291L5.2852 5.248a1.0003 1.0003 0 0 0-1.1914.4454L2.5858 8.3066c-.239.415-.152.9419.209 1.2559l1.3184 1.1465C4.0447 11.1303 4 11.5593 4 12s.0447.8697.1133 1.291l-1.3184 1.1465c-.361.314-.448.8409-.209 1.2559l1.5078 2.6132c.239.415.7385.6023 1.1915.4473l1.6445-.5664c.6662.5467 1.4257.9788 2.246 1.289l.334 1.715c.092.47.5015.8085.9805.8085h3.0196a.9984.9984 0 0 0 .9804-.8086l.334-1.7148c.8208-.3104 1.5797-.744 2.2461-1.291l1.6445.5664a.9991.9991 0 0 0 1.1914-.4454l1.5079-2.6152a.9994.9994 0 0 0-.209-1.2539l-1.3184-1.1465C19.9553 12.8697 20 12.4407 20 12s-.0447-.8697-.1133-1.291l1.3184-1.1465c.361-.314.448-.8409.209-1.2559l-1.5079-2.6132a1.0008 1.0008 0 0 0-1.1914-.4473l-1.6445.5664c-.6662-.5467-1.4257-.9788-2.246-1.289l-.334-1.715A.9984.9984 0 0 0 13.5097 2h-3.0196zM12 8c2.209 0 4 1.791 4 4s-1.791 4-4 4-4-1.791-4-4 1.791-4 4-4z"/>
</svg>