<svg xmlns="http://www.w3.org/2000/svg" viewBox="0 0 32 32" fill="#e6e6e6"><path d="M16 5C9.383 5 4 10.383 4 17a11.92 11.92 0 0 0 3.781 8.719l.313.281h15.812l.313-.281A11.918 11.918 0 0 0 28 17c0-6.617-5.383-12-12-12zm0 2c5.535 0 10 4.465 10 10 0 2.754-1.168 5.191-2.969 7H8.97C7.168 22.191 6 19.754 6 17c0-5.535 4.465-10 10-10zm0 1c-.55 0-1 .45-1 1s.45 1 1 1 1-.45 1-1-.45-1-1-1zm-4 1.063c-.55 0-1 .449-1 1 0 .55.45 1 1 1s1-.45 1-1c0-.551-.45-1-1-1zm8 0c-.55 0-1 .449-1 1 0 .55.45 1 1 1s1-.45 1-1c0-.551-.45-1-1-1zM9.062 12c-.55 0-1 .45-1 1s.45 1 1 1c.551 0 1-.45 1-1s-.449-1-1-1zm13.876 0a.996.996 0 0 0-.532.156L17 15.281A1.984 1.984 0 0 0 16 15a1.999 1.999 0 1 0 0 4 2 2 0 0 0 2-2l5.313-3.094c.359-.152.625-.492.625-.906 0-.55-.45-1-1-1zM8 16c-.55 0-1 .45-1 1s.45 1 1 1 1-.45 1-1-.45-1-1-1zm16 0c-.55 0-1 .45-1 1s.45 1 1 1 1-.45 1-1-.45-1-1-1zM9.062 20c-.55 0-1 .45-1 1s.45 1 1 1c.551 0 1-.45 1-1s-.449-1-1-1zm13.876 0c-.551 0-1 .45-1 1s.449 1 1 1c.55 0 1-.45 1-1s-.45-1-1-1z"/></svg>