<svg xmlns="http://www.w3.org/2000/svg" viewBox="0 0 24 24" fill="#e6e6e6">
  <path d="M20 2a2 2 0 0 0-2 2 2 2 0 0 0 .23.932L16.52 7.07A2 2 0 0 0 16 7a2 2 0 0 0-1.281.467l-2.725-1.363A2 2 0 0 0 12 6a2 2 0 0 0-2-2 2 2 0 0 0-2 2 2 2 0 0 0 .004.104L5.28 7.464A2 2 0 0 0 4 7a2 2 0 0 0-2 2 2 2 0 0 0 2 2 2 2 0 0 0 2-2 2 2 0 0 0-.004-.104l2.723-1.36A2 2 0 0 0 10 8a2 2 0 0 0 1.281-.465l2.725 1.361A2 2 0 0 0 14 9a2 2 0 0 0 2 2 2 2 0 0 0 2-2 2 2 0 0 0-.23-.93l1.71-2.138A2 2 0 0 0 20 6a2 2 0 0 0 2-2 2 2 0 0 0-2-2zm0 11a2 2 0 0 0-2 2 2 2 0 0 0 .203.875l-1.707 2.19A2 2 0 0 0 16 18a2 2 0 0 0-.932.23l-2.136-1.71A2 2 0 0 0 13 16a2 2 0 0 0-2-2 2 2 0 0 0-1.979 1.732l-3.48.995A2 2 0 0 0 4 16a2 2 0 0 0-2 2 2 2 0 0 0 2 2 2 2 0 0 0 1.979-1.732l3.48-.995A2 2 0 0 0 11 18a2 2 0 0 0 .93-.23l2.138 1.71A2 2 0 0 0 14 20a2 2 0 0 0 2 2 2 2 0 0 0 2-2 2 2 0 0 0-.242-.953l1.664-2.133A2 2 0 0 0 20 17a2 2 0 0 0 2-2 2 2 0 0 0-2-2z"/>
</svg>