<svg xmlns="http://www.w3.org/2000/svg" viewBox="0 0 24 24" fill="#e6e6e6">
  <path d="M10.5 2a1 1 0 0 0-1 .8l-.3 1.7a8 8 0 0 0-2.3 1.3l-1.6-.6a1 1 0 0 0-1.2.5L2.6 8.3a1 1 0 0 0 .2 1.3L4 10.7a8 8 0 0 0 0 2.6l-1.3 1.1a1 1 0 0 0-.2 1.3L4 18.3c.2.4.7.6 1.2.5l1.6-.6a8 8 0 0 0 2.3 1.3l.3 1.7c.1.5.5.8 1 .8h1.8a7 7 0 0 1-1-6 4 4 0 1 1 4.6-4.7 7 7 0 0 1 4 0v-.6l1.3-1.1c.4-.4.5-.9.2-1.3L20 5.7a1 1 0 0 0-1.2-.5l-1.6.6a8 8 0 0 0-2.3-1.3l-.3-1.7a1 1 0 0 0-1-.8h-3zM18 13a5 5 0 0 0-5 5 5 5 0 0 0 5 5c1 0 2-.3 2.8-.8l1.5 1.5a1 1 0 1 0 1.4-1.4l-1.5-1.5c.5-.8.8-1.8.8-2.8a5 5 0 0 0-5-5zm0 2a3 3 0 0 1 3 3 3 3 0 0 1-3 3 3 3 0 0 1-3-3 3 3 0 0 1 3-3z"/>
</svg>
