<svg xmlns="http://www.w3.org/2000/svg" width="250" height="250" fill="#e6e6e6"><path d="M125 25A100 100 0 0 0 25 125a100 100 0 0 0 100 100 100 100 0 0 0 100-100A100 100 0 0 0 125 25zm-.4 4.4a17.5 17.5 0 0 1 15.6 8.8 17.5 17.5 0 0 1-6.4 23.9 17.5 17.5 0 0 1-24-6.4 17.5 17.5 0 0 1 6.5-24 17.5 17.5 0 0 1 8.3-2.3zm47 15a17.5 17.5 0 0 1 1.2 0 17.5 17.5 0 0 1 15.6 19.3A17.5 17.5 0 0 1 169 79.3 17.5 17.5 0 0 1 153.5 60a17.5 17.5 0 0 1 18-15.6zm-91.7 0a17.5 17.5 0 0 1 6.3 1.5 17.5 17.5 0 0 1 8.8 23 17.5 17.5 0 0 1-23 9 17.5 17.5 0 0 1-9-23.2 17.5 17.5 0 0 1 17-10.2zm-29.4 39a17.5 17.5 0 0 1 17.3 14A17.5 17.5 0 0 1 54.3 118a17.5 17.5 0 0 1-20.8-13.5A17.5 17.5 0 0 1 47 83.8a17.5 17.5 0 0 1 3.5-.3zm149.4 0a17.5 17.5 0 0 1 11.2 4.6 17.5 17.5 0 0 1 1.3 24.7 17.5 17.5 0 0 1-24.8 1.3 17.5 17.5 0 0 1-1.3-24.8 17.5 17.5 0 0 1 12.4-5.7 17.5 17.5 0 0 1 1.2 0zm-.7 48.4a17.5 17.5 0 0 1 17.3 13.8 17.5 17.5 0 0 1-13.5 20.8 17.5 17.5 0 0 1-20.8-13.5 17.5 17.5 0 0 1 13.5-20.7 17.5 17.5 0 0 1 3.5-.4zm-148 0a17.5 17.5 0 0 1 11.2 4.5 17.5 17.5 0 0 1 1.3 24.7 17.5 17.5 0 0 1-24.8 1.3 17.5 17.5 0 0 1-1.3-24.7 17.5 17.5 0 0 1 12.4-5.8 17.5 17.5 0 0 1 1.2 0zm28.4 39a17.5 17.5 0 0 1 1.3.2 17.5 17.5 0 0 1 15.6 19.2 17.5 17.5 0 0 1-19.3 15.6 17.5 17.5 0 0 1-15.6-19.3 17.5 17.5 0 0 1 18-15.6zm92.2 0a17.5 17.5 0 0 1 6.3 1.6 17.5 17.5 0 0 1 8.8 23 17.5 17.5 0 0 1-23 9 17.5 17.5 0 0 1-9-23.2 17.5 17.5 0 0 1 16.9-10.3zm-47.2 15a17.5 17.5 0 0 1 15.6 8.7 17.5 17.5 0 0 1-6.4 24 17.5 17.5 0 0 1-24-6.5 17.5 17.5 0 0 1 6.5-23.9 17.5 17.5 0 0 1 8.3-2.3z"/></svg>